<?xml version="1.0" encoding="iso-8859-1"?>
<!-- Generator: Adobe Illustrator 16.0.0, SVG Export Plug-In . SVG Version: 6.00 Build 0)  -->
<!DOCTYPE svg PUBLIC "-//W3C//DTD SVG 1.1//EN" "http://www.w3.org/Graphics/SVG/1.1/DTD/svg11.dtd">
<svg version="1.1" id="Capa_1" xmlns="http://www.w3.org/2000/svg" xmlns:xlink="http://www.w3.org/1999/xlink" x="0px" y="0px"
	 width="31.826px" height="31.826px" viewBox="0 0 31.826 31.826" style="enable-background:new 0 0 31.826 31.826;"
	 xml:space="preserve">
<g>
	<g>
		<circle cx="15.994" cy="6.991" r="0.862"/>
		<circle cx="15.994" cy="24.169" r="0.862"/>
		<circle cx="24.583" cy="15.58" r="0.862"/>
		<circle cx="7.403" cy="15.58" r="0.862"/>
		<circle cx="22.068" cy="9.506" r="0.86"/>
		<circle cx="9.919" cy="21.654" r="0.86"/>
		<circle cx="22.066" cy="21.655" r="0.861"/>
		<path d="M10.529,10.116c0.338-0.337,0.337-0.883,0-1.218c-0.337-0.337-0.881-0.337-1.22,0c-0.334,0.335-0.334,0.881,0.003,1.217
			C9.647,10.452,10.191,10.453,10.529,10.116z"/>
		<path d="M3.736,24.911l-2.699,4.084c-0.557,0.841-0.326,1.973,0.516,2.526c0.309,0.205,0.658,0.303,1.005,0.303
			c0.59,0,1.171-0.287,1.521-0.818l2.257-3.414C5.365,26.808,4.491,25.906,3.736,24.911z"/>
		<path d="M30.939,28.996l-2.693-4.075c-0.756,0.995-1.631,1.896-2.602,2.681l2.252,3.406c0.35,0.531,0.932,0.818,1.521,0.818
			c0.347,0,0.695-0.098,1.007-0.303C31.263,30.969,31.494,29.837,30.939,28.996z"/>
		<path d="M1.445,10.641c1.585-4.603,5.294-8.225,9.953-9.686C10.341,0.349,9.12,0,7.816,0c-1.078,0-2.102,0.238-3.02,0.662
			C4.382,0.334,3.86,0.136,3.289,0.136c-1.345,0-2.433,1.089-2.433,2.432c0,0.544,0.181,1.045,0.482,1.45
			C0.857,4.986,0.585,6.076,0.585,7.23C0.586,8.465,0.898,9.625,1.445,10.641z"/>
		<path d="M26.812,4.711c1.443,1.43,2.604,3.143,3.396,5.048c0.295-0.787,0.459-1.638,0.459-2.528c0-1.154-0.271-2.245-0.752-3.212
			c0.302-0.405,0.479-0.906,0.479-1.45c0-1.343-1.09-2.432-2.433-2.432c-0.569,0-1.095,0.197-1.509,0.525
			c-0.92-0.423-1.939-0.661-3.021-0.661c-1.199,0-2.33,0.295-3.324,0.813c2.17,0.604,4.148,1.672,5.82,3.092
			C26.236,4.162,26.529,4.431,26.812,4.711z"/>
		<path d="M30.023,15.634c0-7.736-6.293-14.029-14.028-14.029c-7.737,0-14.03,6.293-14.03,14.029c0,7.736,6.293,14.029,14.03,14.029
			C23.73,29.663,30.023,23.37,30.023,15.634z M15.994,26.014c-5.725,0-10.382-4.656-10.382-10.38
			c0-5.724,4.657-10.381,10.382-10.381c5.725,0,10.38,4.657,10.38,10.381C26.374,21.357,21.718,26.014,15.994,26.014z"/>
		<path d="M21.877,14.645h-3.745c-0.199-0.401-0.466-0.799-0.865-1.04v-3.237c0-0.671-0.598-1.216-1.27-1.216
			s-1.269,0.544-1.269,1.216v3.237c-0.669,0.414-1.129,1.167-1.129,2.029c0,1.308,1.074,2.364,2.381,2.364
			c0.772,0,1.47-0.415,1.902-0.949h3.995c0.673,0,1.218-0.529,1.218-1.202C23.095,15.175,22.552,14.645,21.877,14.645z"/>
	</g>
</g>
<g>
</g>
<g>
</g>
<g>
</g>
<g>
</g>
<g>
</g>
<g>
</g>
<g>
</g>
<g>
</g>
<g>
</g>
<g>
</g>
<g>
</g>
<g>
</g>
<g>
</g>
<g>
</g>
<g>
</g>
</svg>
